<svg width="1000" height="389" viewBox="0 0 1000 389" fill="none" xmlns="http://www.w3.org/2000/svg">
<rect width="1000" height="389" rx="12" fill="#0F75BC"/>
<path d="M500 236.667C523.012 236.667 541.667 218.012 541.667 195C541.667 171.988 523.012 153.333 500 153.333C476.988 153.333 458.333 171.988 458.333 195C458.333 218.012 476.988 236.667 500 236.667Z" stroke="white" stroke-width="2" stroke-linecap="round" stroke-linejoin="round"/>
<path d="M489.583 182.356C489.583 180.367 489.583 179.373 489.999 178.817C490.361 178.334 490.916 178.031 491.518 177.988C492.21 177.939 493.046 178.476 494.719 179.552L514.388 192.196C515.84 193.129 516.566 193.596 516.816 194.189C517.036 194.708 517.036 195.293 516.816 195.811C516.566 196.404 515.84 196.871 514.388 197.804L494.719 210.448C493.046 211.524 492.21 212.062 491.518 212.012C490.916 211.969 490.361 211.666 489.999 211.183C489.583 210.628 489.583 209.633 489.583 207.644V182.356Z" stroke="white" stroke-width="2" stroke-linecap="round" stroke-linejoin="round"/>
</svg>
